<svg width="216" height="63" viewBox="0 0 216 63" fill="none" xmlns="http://www.w3.org/2000/svg">
<g filter="url(#filter0_f_36_17)">
<path d="M43.5 16H44.5V15H43.5V16ZM43.5 58V59H44.5V58H43.5ZM33.78 58H32.78V59H33.78V58ZM33.78 40.78H34.78V39.78H33.78V40.78ZM14.7 40.78V39.78H13.7V40.78H14.7ZM14.7 58V59H15.7V58H14.7ZM4.98 58H3.98V59H4.98V58ZM4.98 16V15H3.98V16H4.98ZM14.7 16H15.7V15H14.7V16ZM14.7 32.56H13.7V33.56H14.7V32.56ZM33.78 32.56V33.56H34.78V32.56H33.78ZM33.78 16V15H32.78V16H33.78ZM42.5 16V58H44.5V16H42.5ZM43.5 57H33.78V59H43.5V57ZM34.78 58V40.78H32.78V58H34.78ZM33.78 39.78H14.7V41.78H33.78V39.78ZM13.7 40.78V58H15.7V40.78H13.7ZM14.7 57H4.98V59H14.7V57ZM5.98 58V16H3.98V58H5.98ZM4.98 17H14.7V15H4.98V17ZM13.7 16V32.56H15.7V16H13.7ZM14.7 33.56H33.78V31.56H14.7V33.56ZM34.78 32.56V16H32.78V32.56H34.78ZM33.78 17H43.5V15H33.78V17ZM61.957 55.9L61.4817 56.7798L61.4859 56.7821L61.957 55.9ZM53.737 48.16L52.8759 48.6684L52.8795 48.6745L52.8832 48.6806L53.737 48.16ZM53.737 25.9L52.8804 25.384L52.8786 25.387L53.737 25.9ZM61.957 18.1L61.4859 17.2179L61.4817 17.2202L61.957 18.1ZM93.757 25.9L92.9004 26.416L92.9032 26.4206L93.757 25.9ZM93.757 48.16L94.6108 48.6806L94.6136 48.676L93.757 48.16ZM85.537 55.9L86.0123 56.7798L85.537 55.9ZM80.497 48.76L80.9856 49.6325L80.9922 49.6288L80.9987 49.625L80.497 48.76ZM85.177 43.96L84.3077 43.4657L84.3041 43.4722L84.3005 43.4787L85.177 43.96ZM85.177 30.04L84.3005 30.5213L84.3041 30.5278L84.3077 30.5343L85.177 30.04ZM80.497 25.3L79.9953 26.165L80.0018 26.1688L80.0084 26.1725L80.497 25.3ZM67.057 25.3L67.5456 26.1725L67.5522 26.1688L67.5587 26.165L67.057 25.3ZM62.317 30.04L61.4477 29.5457L61.444 29.5522L61.4405 29.5587L62.317 30.04ZM62.317 43.96L61.4405 44.4413L61.444 44.4478L61.4477 44.4543L62.317 43.96ZM67.057 48.76L66.5553 49.625L66.5618 49.6288L66.5684 49.6325L67.057 48.76ZM73.777 57.72C69.5658 57.72 65.7901 56.8135 62.4281 55.0179L61.4859 56.7821C65.164 58.7465 69.2682 59.72 73.777 59.72V57.72ZM62.4323 55.0202C59.1032 53.2217 56.4959 50.7637 54.5908 47.6394L52.8832 48.6806C54.9782 52.1163 57.8508 54.8183 61.4817 56.7798L62.4323 55.0202ZM54.5982 47.6516C52.7353 44.4962 51.797 40.9539 51.797 37H49.797C49.797 41.2861 50.8187 45.1838 52.8759 48.6684L54.5982 47.6516ZM51.797 37C51.797 33.046 52.7353 29.5258 54.5954 26.413L52.8786 25.387C50.8187 28.8342 49.797 32.714 49.797 37H51.797ZM54.5936 26.416C56.4994 23.2525 59.1063 20.7767 62.4323 18.9798L61.4817 17.2202C57.8478 19.1833 54.9747 21.9075 52.8805 25.384L54.5936 26.416ZM62.4281 18.9821C65.7901 17.1865 69.5658 16.28 73.777 16.28V14.28C69.2682 14.28 65.164 15.2535 61.4859 17.2179L62.4281 18.9821ZM73.777 16.28C77.9884 16.28 81.7423 17.1865 85.0617 18.9798L86.0123 17.2202C82.3718 15.2535 78.2857 14.28 73.777 14.28V16.28ZM85.0617 18.9798C88.3878 20.7767 90.9947 23.2525 92.9005 26.416L94.6136 25.384C92.5194 21.9075 89.6463 19.1833 86.0123 17.2202L85.0617 18.9798ZM92.9032 26.4206C94.8007 29.5324 95.757 33.0498 95.757 37H97.757C97.757 32.7102 96.7134 28.8276 94.6108 25.3794L92.9032 26.4206ZM95.757 37C95.757 40.9501 94.8007 44.4897 92.9005 47.644L94.6136 48.676C96.7134 45.1903 97.757 41.2899 97.757 37H95.757ZM92.9032 47.6394C90.9982 50.7637 88.3908 53.2217 85.0617 55.0202L86.0123 56.7798C89.6432 54.8183 92.5159 52.1163 94.6108 48.6806L92.9032 47.6394ZM85.0617 55.0202C81.7423 56.8135 77.9884 57.72 73.777 57.72V59.72C78.2857 59.72 82.3718 58.7465 86.0123 56.7798L85.0617 55.0202ZM73.777 51.44C76.4137 51.44 78.8243 50.8429 80.9856 49.6325L80.0084 47.8875C78.1698 48.9171 76.1004 49.44 73.777 49.44V51.44ZM80.9987 49.625C83.1574 48.373 84.8465 46.6398 86.0536 44.4413L84.3005 43.4787C83.2675 45.3602 81.8367 46.827 79.9953 47.895L80.9987 49.625ZM86.0463 44.4543C87.301 42.2478 87.917 39.7542 87.917 37H85.917C85.917 39.4458 85.3731 41.5922 84.3077 43.4657L86.0463 44.4543ZM87.917 37C87.917 34.2458 87.301 31.7522 86.0463 29.5457L84.3077 30.5343C85.3731 32.4078 85.917 34.5542 85.917 37H87.917ZM86.0536 29.5587C84.8449 27.3572 83.1517 25.6405 80.9856 24.4275L80.0084 26.1725C81.8424 27.1995 83.2691 28.6428 84.3005 30.5213L86.0536 29.5587ZM80.9987 24.435C78.8353 23.1801 76.42 22.56 73.777 22.56V24.56C76.0941 24.56 78.1588 25.0999 79.9953 26.165L80.9987 24.435ZM73.777 22.56C71.1341 22.56 68.7188 23.1801 66.5553 24.435L67.5587 26.165C69.3953 25.0999 71.46 24.56 73.777 24.56V22.56ZM66.5684 24.4275C64.4055 25.6387 62.6956 27.3513 61.4477 29.5457L63.1863 30.5343C64.2585 28.6487 65.7085 27.2013 67.5456 26.1725L66.5684 24.4275ZM61.4405 29.5587C60.2303 31.7629 59.637 34.2518 59.637 37H61.637C61.637 34.5482 62.1637 32.3971 63.1936 30.5213L61.4405 29.5587ZM59.637 37C59.637 39.7482 60.2303 42.2371 61.4405 44.4413L63.1936 43.4787C62.1637 41.6029 61.637 39.4518 61.637 37H59.637ZM61.4477 44.4543C62.6939 46.6458 64.3997 48.3748 66.5553 49.625L67.5587 47.895C65.7143 46.8252 64.2602 45.3542 63.1863 43.4657L61.4477 44.4543ZM66.5684 49.6325C68.7298 50.8429 71.1404 51.44 73.777 51.44V49.44C71.4537 49.44 69.3843 48.9171 67.5456 47.8875L66.5684 49.6325ZM112.176 23.92H113.176V22.92H112.176V23.92ZM98.7361 23.92H97.7361V24.92H98.7361V23.92ZM98.7361 16V15H97.7361V16H98.7361ZM135.336 16H136.336V15H135.336V16ZM135.336 23.92V24.92H136.336V23.92H135.336ZM121.896 23.92V22.92H120.896V23.92H121.896ZM121.896 58V59H122.896V58H121.896ZM112.176 58H111.176V59H112.176V58ZM112.176 22.92H98.7361V24.92H112.176V22.92ZM99.7361 23.92V16H97.7361V23.92H99.7361ZM98.7361 17H135.336V15H98.7361V17ZM134.336 16V23.92H136.336V16H134.336ZM135.336 22.92H121.896V24.92H135.336V22.92ZM120.896 23.92V58H122.896V23.92H120.896ZM121.896 57H112.176V59H121.896V57ZM113.176 58V23.92H111.176V58H113.176ZM173.086 50.2H174.086V49.2H173.086V50.2ZM173.086 58V59H174.086V58H173.086ZM140.566 58H139.566V59H140.566V58ZM140.566 16V15H139.566V16H140.566ZM172.306 16H173.306V15H172.306V16ZM172.306 23.8V24.8H173.306V23.8H172.306ZM150.226 23.8V22.8H149.226V23.8H150.226ZM150.226 32.92H149.226V33.92H150.226V32.92ZM169.726 32.92H170.726V31.92H169.726V32.92ZM169.726 40.48V41.48H170.726V40.48H169.726ZM150.226 40.48V39.48H149.226V40.48H150.226ZM150.226 50.2H149.226V51.2H150.226V50.2ZM172.086 50.2V58H174.086V50.2H172.086ZM173.086 57H140.566V59H173.086V57ZM141.566 58V16H139.566V58H141.566ZM140.566 17H172.306V15H140.566V17ZM171.306 16V23.8H173.306V16H171.306ZM172.306 22.8H150.226V24.8H172.306V22.8ZM149.226 23.8V32.92H151.226V23.8H149.226ZM150.226 33.92H169.726V31.92H150.226V33.92ZM168.726 32.92V40.48H170.726V32.92H168.726ZM169.726 39.48H150.226V41.48H169.726V39.48ZM149.226 40.48V50.2H151.226V40.48H149.226ZM150.226 51.2H173.086V49.2H150.226V51.2ZM180.82 16V15H179.82V16H180.82ZM190.54 16H191.54V15H190.54V16ZM190.54 50.08H189.54V51.08H190.54V50.08ZM211.6 50.08H212.6V49.08H211.6V50.08ZM211.6 58V59H212.6V58H211.6ZM180.82 58H179.82V59H180.82V58ZM180.82 17H190.54V15H180.82V17ZM189.54 16V50.08H191.54V16H189.54ZM190.54 51.08H211.6V49.08H190.54V51.08ZM210.6 50.08V58H212.6V50.08H210.6ZM211.6 57H180.82V59H211.6V57ZM181.82 58V16H179.82V58H181.82Z" fill="black"/>
</g>
<path d="M43.5 16V58H33.78V40.78H14.7V58H4.98V16H14.7V32.56H33.78V16H43.5ZM73.777 58.72C69.417 58.72 65.477 57.78 61.957 55.9C58.477 54.02 55.737 51.44 53.737 48.16C51.777 44.84 50.797 41.12 50.797 37C50.797 32.88 51.777 29.18 53.737 25.9C55.737 22.58 58.477 19.98 61.957 18.1C65.477 16.22 69.417 15.28 73.777 15.28C78.137 15.28 82.057 16.22 85.537 18.1C89.017 19.98 91.757 22.58 93.757 25.9C95.757 29.18 96.757 32.88 96.757 37C96.757 41.12 95.757 44.84 93.757 48.16C91.757 51.44 89.017 54.02 85.537 55.9C82.057 57.78 78.137 58.72 73.777 58.72ZM73.777 50.44C76.257 50.44 78.497 49.88 80.497 48.76C82.497 47.6 84.057 46 85.177 43.96C86.337 41.92 86.917 39.6 86.917 37C86.917 34.4 86.337 32.08 85.177 30.04C84.057 28 82.497 26.42 80.497 25.3C78.497 24.14 76.257 23.56 73.777 23.56C71.297 23.56 69.057 24.14 67.057 25.3C65.057 26.42 63.477 28 62.317 30.04C61.197 32.08 60.637 34.4 60.637 37C60.637 39.6 61.197 41.92 62.317 43.96C63.477 46 65.057 47.6 67.057 48.76C69.057 49.88 71.297 50.44 73.777 50.44ZM112.176 23.92H98.7361V16H135.336V23.92H121.896V58H112.176V23.92ZM173.086 50.2V58H140.566V16H172.306V23.8H150.226V32.92H169.726V40.48H150.226V50.2H173.086ZM180.82 16H190.54V50.08H211.6V58H180.82V16Z" fill="#2D2D2D"/>
<path d="M43.5 16H44.5V15H43.5V16ZM43.5 58V59H44.5V58H43.5ZM33.78 58H32.78V59H33.78V58ZM33.78 40.78H34.78V39.78H33.78V40.78ZM14.7 40.78V39.78H13.7V40.78H14.7ZM14.7 58V59H15.7V58H14.7ZM4.98 58H3.98V59H4.98V58ZM4.98 16V15H3.98V16H4.98ZM14.7 16H15.7V15H14.7V16ZM14.7 32.56H13.7V33.56H14.7V32.56ZM33.78 32.56V33.56H34.78V32.56H33.78ZM33.78 16V15H32.78V16H33.78ZM42.5 16V58H44.5V16H42.5ZM43.5 57H33.78V59H43.5V57ZM34.78 58V40.78H32.78V58H34.78ZM33.78 39.78H14.7V41.78H33.78V39.78ZM13.7 40.78V58H15.7V40.78H13.7ZM14.7 57H4.98V59H14.7V57ZM5.98 58V16H3.98V58H5.98ZM4.98 17H14.7V15H4.98V17ZM13.7 16V32.56H15.7V16H13.7ZM14.7 33.56H33.78V31.56H14.7V33.56ZM34.78 32.56V16H32.78V32.56H34.78ZM33.78 17H43.5V15H33.78V17ZM61.957 55.9L61.4817 56.7798L61.4859 56.7821L61.957 55.9ZM53.737 48.16L52.8759 48.6684L52.8795 48.6745L52.8832 48.6806L53.737 48.16ZM53.737 25.9L52.8804 25.384L52.8786 25.387L53.737 25.9ZM61.957 18.1L61.4859 17.2179L61.4817 17.2202L61.957 18.1ZM93.757 25.9L92.9004 26.416L92.9032 26.4206L93.757 25.9ZM93.757 48.16L94.6108 48.6806L94.6136 48.676L93.757 48.16ZM85.537 55.9L86.0123 56.7798L85.537 55.9ZM80.497 48.76L80.9856 49.6325L80.9922 49.6288L80.9987 49.625L80.497 48.76ZM85.177 43.96L84.3077 43.4657L84.3041 43.4722L84.3005 43.4787L85.177 43.96ZM85.177 30.04L84.3005 30.5213L84.3041 30.5278L84.3077 30.5343L85.177 30.04ZM80.497 25.3L79.9953 26.165L80.0018 26.1688L80.0084 26.1725L80.497 25.3ZM67.057 25.3L67.5456 26.1725L67.5522 26.1688L67.5587 26.165L67.057 25.3ZM62.317 30.04L61.4477 29.5457L61.444 29.5522L61.4405 29.5587L62.317 30.04ZM62.317 43.96L61.4405 44.4413L61.444 44.4478L61.4477 44.4543L62.317 43.96ZM67.057 48.76L66.5553 49.625L66.5618 49.6288L66.5684 49.6325L67.057 48.76ZM73.777 57.72C69.5658 57.72 65.7901 56.8135 62.4281 55.0179L61.4859 56.7821C65.164 58.7465 69.2682 59.72 73.777 59.72V57.72ZM62.4323 55.0202C59.1032 53.2217 56.4959 50.7637 54.5908 47.6394L52.8832 48.6806C54.9782 52.1163 57.8508 54.8183 61.4817 56.7798L62.4323 55.0202ZM54.5982 47.6516C52.7353 44.4962 51.797 40.9539 51.797 37H49.797C49.797 41.2861 50.8187 45.1838 52.8759 48.6684L54.5982 47.6516ZM51.797 37C51.797 33.046 52.7353 29.5258 54.5954 26.413L52.8786 25.387C50.8187 28.8342 49.797 32.714 49.797 37H51.797ZM54.5936 26.416C56.4994 23.2525 59.1063 20.7767 62.4323 18.9798L61.4817 17.2202C57.8478 19.1833 54.9747 21.9075 52.8805 25.384L54.5936 26.416ZM62.4281 18.9821C65.7901 17.1865 69.5658 16.28 73.777 16.28V14.28C69.2682 14.28 65.164 15.2535 61.4859 17.2179L62.4281 18.9821ZM73.777 16.28C77.9884 16.28 81.7423 17.1865 85.0617 18.9798L86.0123 17.2202C82.3718 15.2535 78.2857 14.28 73.777 14.28V16.28ZM85.0617 18.9798C88.3878 20.7767 90.9947 23.2525 92.9005 26.416L94.6136 25.384C92.5194 21.9075 89.6463 19.1833 86.0123 17.2202L85.0617 18.9798ZM92.9032 26.4206C94.8007 29.5324 95.757 33.0498 95.757 37H97.757C97.757 32.7102 96.7134 28.8276 94.6108 25.3794L92.9032 26.4206ZM95.757 37C95.757 40.9501 94.8007 44.4897 92.9005 47.644L94.6136 48.676C96.7134 45.1903 97.757 41.2899 97.757 37H95.757ZM92.9032 47.6394C90.9982 50.7637 88.3908 53.2217 85.0617 55.0202L86.0123 56.7798C89.6432 54.8183 92.5159 52.1163 94.6108 48.6806L92.9032 47.6394ZM85.0617 55.0202C81.7423 56.8135 77.9884 57.72 73.777 57.72V59.72C78.2857 59.72 82.3718 58.7465 86.0123 56.7798L85.0617 55.0202ZM73.777 51.44C76.4137 51.44 78.8243 50.8429 80.9856 49.6325L80.0084 47.8875C78.1698 48.9171 76.1004 49.44 73.777 49.44V51.44ZM80.9987 49.625C83.1574 48.373 84.8465 46.6398 86.0536 44.4413L84.3005 43.4787C83.2675 45.3602 81.8367 46.827 79.9953 47.895L80.9987 49.625ZM86.0463 44.4543C87.301 42.2478 87.917 39.7542 87.917 37H85.917C85.917 39.4458 85.3731 41.5922 84.3077 43.4657L86.0463 44.4543ZM87.917 37C87.917 34.2458 87.301 31.7522 86.0463 29.5457L84.3077 30.5343C85.3731 32.4078 85.917 34.5542 85.917 37H87.917ZM86.0536 29.5587C84.8449 27.3572 83.1517 25.6405 80.9856 24.4275L80.0084 26.1725C81.8424 27.1995 83.2691 28.6428 84.3005 30.5213L86.0536 29.5587ZM80.9987 24.435C78.8353 23.1801 76.42 22.56 73.777 22.56V24.56C76.0941 24.56 78.1588 25.0999 79.9953 26.165L80.9987 24.435ZM73.777 22.56C71.1341 22.56 68.7188 23.1801 66.5553 24.435L67.5587 26.165C69.3953 25.0999 71.46 24.56 73.777 24.56V22.56ZM66.5684 24.4275C64.4055 25.6387 62.6956 27.3513 61.4477 29.5457L63.1863 30.5343C64.2585 28.6487 65.7085 27.2013 67.5456 26.1725L66.5684 24.4275ZM61.4405 29.5587C60.2303 31.7629 59.637 34.2518 59.637 37H61.637C61.637 34.5482 62.1637 32.3971 63.1936 30.5213L61.4405 29.5587ZM59.637 37C59.637 39.7482 60.2303 42.2371 61.4405 44.4413L63.1936 43.4787C62.1637 41.6029 61.637 39.4518 61.637 37H59.637ZM61.4477 44.4543C62.6939 46.6458 64.3997 48.3748 66.5553 49.625L67.5587 47.895C65.7143 46.8252 64.2602 45.3542 63.1863 43.4657L61.4477 44.4543ZM66.5684 49.6325C68.7298 50.8429 71.1404 51.44 73.777 51.44V49.44C71.4537 49.44 69.3843 48.9171 67.5456 47.8875L66.5684 49.6325ZM112.176 23.92H113.176V22.92H112.176V23.92ZM98.7361 23.92H97.7361V24.92H98.7361V23.92ZM98.7361 16V15H97.7361V16H98.7361ZM135.336 16H136.336V15H135.336V16ZM135.336 23.92V24.92H136.336V23.92H135.336ZM121.896 23.92V22.92H120.896V23.92H121.896ZM121.896 58V59H122.896V58H121.896ZM112.176 58H111.176V59H112.176V58ZM112.176 22.92H98.7361V24.92H112.176V22.92ZM99.7361 23.92V16H97.7361V23.92H99.7361ZM98.7361 17H135.336V15H98.7361V17ZM134.336 16V23.92H136.336V16H134.336ZM135.336 22.92H121.896V24.92H135.336V22.92ZM120.896 23.92V58H122.896V23.92H120.896ZM121.896 57H112.176V59H121.896V57ZM113.176 58V23.92H111.176V58H113.176ZM173.086 50.2H174.086V49.2H173.086V50.2ZM173.086 58V59H174.086V58H173.086ZM140.566 58H139.566V59H140.566V58ZM140.566 16V15H139.566V16H140.566ZM172.306 16H173.306V15H172.306V16ZM172.306 23.8V24.8H173.306V23.8H172.306ZM150.226 23.8V22.8H149.226V23.8H150.226ZM150.226 32.92H149.226V33.92H150.226V32.92ZM169.726 32.92H170.726V31.92H169.726V32.92ZM169.726 40.48V41.48H170.726V40.48H169.726ZM150.226 40.48V39.48H149.226V40.48H150.226ZM150.226 50.2H149.226V51.2H150.226V50.2ZM172.086 50.2V58H174.086V50.2H172.086ZM173.086 57H140.566V59H173.086V57ZM141.566 58V16H139.566V58H141.566ZM140.566 17H172.306V15H140.566V17ZM171.306 16V23.8H173.306V16H171.306ZM172.306 22.8H150.226V24.8H172.306V22.8ZM149.226 23.8V32.92H151.226V23.8H149.226ZM150.226 33.92H169.726V31.92H150.226V33.92ZM168.726 32.92V40.48H170.726V32.92H168.726ZM169.726 39.48H150.226V41.48H169.726V39.48ZM149.226 40.48V50.2H151.226V40.48H149.226ZM150.226 51.2H173.086V49.2H150.226V51.2ZM180.82 16V15H179.82V16H180.82ZM190.54 16H191.54V15H190.54V16ZM190.54 50.08H189.54V51.08H190.54V50.08ZM211.6 50.08H212.6V49.08H211.6V50.08ZM211.6 58V59H212.6V58H211.6ZM180.82 58H179.82V59H180.82V58ZM180.82 17H190.54V15H180.82V17ZM189.54 16V50.08H191.54V16H189.54ZM190.54 51.08H211.6V49.08H190.54V51.08ZM210.6 50.08V58H212.6V50.08H210.6ZM211.6 57H180.82V59H211.6V57ZM181.82 58V16H179.82V58H181.82Z" fill="#565656"/>
<defs>
<filter id="filter0_f_36_17" x="0.980011" y="11.28" width="214.62" height="51.4399" filterUnits="userSpaceOnUse" color-interpolation-filters="sRGB">
<feFlood flood-opacity="0" result="BackgroundImageFix"/>
<feBlend mode="normal" in="SourceGraphic" in2="BackgroundImageFix" result="shape"/>
<feGaussianBlur stdDeviation="2" result="effect1_foregroundBlur_36_17"/>
</filter>
</defs>
</svg>
